<?xml version="1.0" encoding="UTF-8"?>
<svg xmlns="http://www.w3.org/2000/svg" xmlns:xlink="http://www.w3.org/1999/xlink" width="8px" height="7px" viewBox="0 0 15 22" version="1.1">
<g id="surface1">
<path style=" stroke:none;fill-rule:nonzero;fill:rgb(10.196078%,73.72549%,99.607843%);fill-opacity:1;" d="M 7.5 11 C 7.5 8.996094 9.160156 7.371094 11.210938 7.371094 C 13.261719 7.371094 14.921875 8.996094 14.921875 11 C 14.921875 13.003906 13.261719 14.628906 11.210938 14.628906 C 9.160156 14.628906 7.5 13.003906 7.5 11 Z M 7.5 11 "/>
<path style=" stroke:none;fill-rule:nonzero;fill:rgb(3.921569%,81.176471%,51.372549%);fill-opacity:1;" d="M 0.078125 18.257812 C 0.078125 16.253906 1.738281 14.628906 3.789062 14.628906 L 7.5 14.628906 L 7.5 18.257812 C 7.5 20.261719 5.839844 21.886719 3.789062 21.886719 C 1.738281 21.886719 0.078125 20.261719 0.078125 18.257812 Z M 0.078125 18.257812 "/>
<path style=" stroke:none;fill-rule:nonzero;fill:rgb(100%,44.705882%,38.431373%);fill-opacity:1;" d="M 7.5 0.113281 L 7.5 7.371094 L 11.210938 7.371094 C 13.261719 7.371094 14.921875 5.746094 14.921875 3.742188 C 14.921875 1.738281 13.261719 0.113281 11.210938 0.113281 Z M 7.5 0.113281 "/>
<path style=" stroke:none;fill-rule:nonzero;fill:rgb(94.901961%,30.588235%,11.764706%);fill-opacity:1;" d="M 0.078125 3.742188 C 0.078125 5.746094 1.738281 7.371094 3.789062 7.371094 L 7.5 7.371094 L 7.5 0.113281 L 3.789062 0.113281 C 1.738281 0.113281 0.078125 1.738281 0.078125 3.742188 Z M 0.078125 3.742188 "/>
<path style=" stroke:none;fill-rule:nonzero;fill:rgb(63.529412%,34.901961%,100%);fill-opacity:1;" d="M 0.078125 11 C 0.078125 13.003906 1.738281 14.628906 3.789062 14.628906 L 7.5 14.628906 L 7.5 7.371094 L 3.789062 7.371094 C 1.738281 7.371094 0.078125 8.996094 0.078125 11 Z M 0.078125 11 "/>
</g>
</svg>
